<svg xmlns="http://www.w3.org/2000/svg" width="50" height="50" viewBox="0 0 50 50" fill="none">
  <!-- Nền tròn xanh -->
  <circle cx="25" cy="25" r="25" fill="#16A34A"/>
  <!-- Icon điện thoại hiện đại (handset) -->
  <path fill="#fff" fill-rule="evenodd" d="M19.2 14.8c.6-.6 1.5-.7 2.2-.3l3.1 1.7c.7.4 1.1 1.2.9 2l-.6 2.4c-.1.5 0 1 .3 1.4l.9 1.2c1.3 1.7 3 3.4 4.7 4.7l1.2.9c.4.3.9.4 1.4.3l2.4-.6c.8-.2 1.6.2 2 .9l1.7 3.1c.4.7.3 1.6-.3 2.2l-1.7 1.7c-.6.6-1.4.9-2.3.9-1.3 0-2.8-.3-4.5-1-3.3-1.3-6.8-3.7-9.8-6.7s-5.4-6.5-6.7-9.8c-.7-1.7-1-3.2-1-4.5 0-.9.3-1.7.9-2.3l1.7-1.7zm2.4 1.6-1.5 1.5c-.1.1-.1.2-.1.3 0 .9.2 2 .7 3.2 1.1 2.9 3.3 6 6 8.7 2.7 2.7 5.8 4.9 8.7 6 .1.4 2.3.7 3.2.7.1 0 .2 0 .3-.1l1.5-1.5-1.3-2.4-2.1.5c-1.1.3-2.2 0-3.1-.6l-1.2-.9c-2-1.5-3.9-3.4-5.4-5.4l-.9-1.2c-.6-.9-.9-2-.6-3.1l.5-2.1-2.4-1.3z"/>
  <!-- Chấm sóng nhỏ cho dễ nhận -->
  <circle cx="32.5" cy="17.5" r="1.35" fill="#fff" opacity="0.95"/>
  <path d="M35.2 15.2a5.2 5.2 0 0 1 0 7.4" stroke="#fff" stroke-width="1.6" stroke-linecap="round" fill="none" opacity="0.9"/>
  <path d="M37.5 13a8.4 8.4 0 0 1 0 11.8" stroke="#fff" stroke-width="1.6" stroke-linecap="round" fill="none" opacity="0.7"/>
</svg>
