<svg xmlns="http://www.w3.org/2000/svg" width="50" height="50" viewBox="0 0 50 50" fill="none">
  <circle cx="25" cy="25" r="25" fill="#16A34A"/>
  <path fill="#fff" d="M33.1 29.8c-.5-.2-2.9-1.4-3.4-1.6-.5-.2-.8-.2-1.1.3s-1.3 1.6-1.6 1.9c-.3.3-.6.4-1.1.1-1.5-.7-5-1.9-7.5-5.7-1.4-1.8-2.3-3.3-2.7-4.3-.3-.8 0-1.1.3-1.4.3-.3.6-.7.9-1.1.3-.3.4-.6.6-1 .2-.4.1-.7 0-1C17.3 15 15.5 11.2 15 10.1c-.4-1.1-.9-.9-1.2-.9h-1c-.3 0-.9.1-1.3.6-.5.5-1.7 1.7-1.7 4.1s1.7 4.7 1.9 5c.2.3 3.4 5.2 8.2 7.3 1.1.5 2 .8 2.7 1 .9.2 1.8.2 2.5.1.8-.1 3.1-1.3 3.5-2.5.4-1.2.4-2.2.3-2.4-.1-.3-.5-.4-1-.6z"/>
</svg>
