<svg width="48" height="48" viewBox="0 0 48 48" fill="none" xmlns="http://www.w3.org/2000/svg">
  <circle cx="24" cy="24" r="24" fill="#ee4d2d"/>
  <path d="M33.5 16.2c-.2-1.4-1.4-2.5-2.8-2.6l-.2-.4c-.4-.8-1.2-1.3-2.1-1.3-.6 0-1.1.2-1.6.5-.5-.3-1-.5-1.6-.5-.9 0-1.7.5-2.1 1.3l-.2.4c-1.4.1-2.6 1.2-2.8 2.6l-1 7.2c-.2 1.6.5 3.2 1.9 4.1 2.4 1.6 5.8 1.6 8.2 0 1.4-.9 2.1-2.5 1.9-4.1l-1-7.2h.6zm-5-2.3c.3 0 .6.1.8.3-.1.1-.3.2-.4.4-.1.2-.2.4-.2.6 0 .5.5 1 1 1 .4 0 .7-.2.9-.5.3.2.6.5.7.9l.9 6.4c.1.8-.3 1.5-.8 2-.2.2-.5.3-.8.3-1.4 0-2.6.2-3.6.6-.5.2-1.1.2-1.6 0-1-.4-2.2-.6-3.6-.6-.3 0-.6-.1-.8-.3-.5-.5-.9-1.2-.8-2l.9-6.4c.1-.4.4-.7.7-.9.2.3.5.5.9.5.5 0 1-.5 1-1 0-.2-.1-.4-.2-.6-.1-.2-.3-.3-.4-.4.2-.2.5-.3.8-.3.4 0 .8.2 1.1.5l.4.4c.2.2.5.4.8.4s.6-.2.8-.4l.4-.4c.3-.3.7-.5 1.1-.5zm-2.4 4.9c-.7 0-1.2.6-1.2 1.2s.5 1.2 1.2 1.2c.6 0 1.2-.5 1.2-1.2 0-.6-.5-1.2-1.2-1.2zm0 5.1c-1.2 0-2.2-1-2.2-2.2s1-2.2 2.2-2.2c1.3 0 2.2 1 2.2 2.2s-1 2.2-2.2 2.2zm4.1-3.3c-.4 0-.8.3-.8.8 0 .4.3.8.8.8.4 0 .8-.3.8-.8 0-.4-.4-.8-.8-.8zm-8.2 0c-.4 0-.8.3-.8.8 0 .4.3.8.8.8.4 0 .8-.3.8-.8 0-.4-.3-.8-.8-.8zm4.1 2c-.6 0-1.2.5-1.2 1.2s.5 1.2 1.2 1.2 1.2-.5 1.2-1.2-.6-1.2-1.2-1.2z" fill="#fff"/>
</svg>
