<svg width="50" height="50" viewBox="0 0 50 50" fill="none" xmlns="http://www.w3.org/2000/svg">
  <circle cx="25" cy="25" r="24.834" fill="#111"/>
  <path d="M34.77 16.608a7.104 7.104 0 0 1-1.775-2.405 7.272 7.272 0 0 1-.573-2.81h-2.959l-.006 16.752a4.498 4.498 0 0 1-1.311 3.17 4.414 4.414 0 0 1-3.13 1.338 4.425 4.425 0 0 1-3.146-1.302 4.505 4.505 0 0 1-1.336-3.15 4.494 4.494 0 0 1 1.334-3.148 4.415 4.415 0 0 1 3.131-1.306c.473 0 .942.075 1.383.22V23.77a7.27 7.27 0 0 0-1.383-.133 7.4 7.4 0 0 0-5.264 2.247 7.548 7.548 0 0 0-2.18 5.357 7.548 7.548 0 0 0 2.18 5.358A7.4 7.4 0 0 0 26.016 39a7.4 7.4 0 0 0 5.264-2.197 7.548 7.548 0 0 0 2.18-5.358l.007-12.5c.936.66 2.003 1.107 3.129 1.32v-2.995a7.044 7.044 0 0 1-1.826-.662Z" fill="#fff"/>
</svg>
